<?xml version="1.0" encoding="utf-8"?>
<!-- Generator: Adobe Illustrator 13.0.1, SVG Export Plug-In . SVG Version: 6.00 Build 14948)  -->
<!DOCTYPE svg PUBLIC "-//W3C//DTD SVG 1.1//EN" "http://www.w3.org/Graphics/SVG/1.1/DTD/svg11.dtd">
<svg version="1.1" id="Vrstva_1" xmlns="http://www.w3.org/2000/svg" xmlns:xlink="http://www.w3.org/1999/xlink" x="0px" y="0px"
	 width="571.783px" height="366.383px" viewBox="0 0 571.783 366.383" enable-background="new 0 0 571.783 366.383"
	 xml:space="preserve">
<g>
	<path fill="#F6A600" d="M68.188,10.148h4.751l3.732,9.617l3.733-9.617h4.752v15.839h-3.394v-9.616l-3.621,9.616h-2.941l-3.62-9.616
		v9.616h-3.394L68.188,10.148L68.188,10.148z"/>
	<path fill="#F6A600" d="M94.209,16.371v3.394h-6.788v-3.394H94.209z"/>
	<path fill="#F6A600" d="M99.865,20.33v5.657h-3.394V10.148h6.787c3.018,0,4.525,1.509,4.525,4.525v1.131
		c0,3.017-1.509,4.525-4.525,4.525L99.865,20.33L99.865,20.33z M99.865,13.542v3.394h3.394c0.755,0,1.132-0.377,1.132-1.131v-1.131
		c0-0.754-0.377-1.131-1.132-1.131L99.865,13.542L99.865,13.542z"/>
	<path fill="#F6A600" d="M120.229,16.371v3.394h-6.788v2.828h6.788v3.394h-10.183V10.148h10.183v3.394h-6.788v2.829H120.229z"/>
	<path fill="#F6A600" d="M122.492,25.987v-3.394h6.788c0.754,0,1.131-0.377,1.131-1.131v-0.565c0-0.754-0.377-1.131-1.131-1.131
		h-2.263c-3.018,0-4.525-1.509-4.525-4.525v-0.566c0-3.017,1.508-4.525,4.525-4.525h6.788v3.394h-6.788
		c-0.754,0-1.131,0.377-1.131,1.131v0.566c0,0.754,0.377,1.131,1.131,1.131h2.263c3.017,0,4.525,1.508,4.525,4.525v0.565
		c0,3.017-1.51,4.525-4.525,4.525H122.492z"/>
	<path fill="#F6A600" d="M149.645,25.987h-3.395l-1.052-3.394h-5.815l-1.052,3.394h-3.394l4.751-15.839h5.204L149.645,25.987z
		 M140.413,19.199h3.756l-1.878-5.657L140.413,19.199z"/>
	<path fill="#F6A600" d="M162.089,10.148c3.018,0,4.525,1.509,4.525,4.525c0,2.037-0.641,3.168-1.923,3.394
		c1.282,0.227,1.923,1.358,1.923,3.394c0,3.017-1.509,4.525-4.525,4.525h-6.788V10.148H162.089z M158.695,13.542v2.829h3.394
		c0.754,0,1.132-0.377,1.132-1.131v-0.566c0-0.754-0.378-1.131-1.132-1.131L158.695,13.542L158.695,13.542z M158.695,19.765v2.828
		h3.394c0.754,0,1.132-0.377,1.132-1.131v-0.565c0-0.754-0.378-1.131-1.132-1.131L158.695,19.765L158.695,19.765z"/>
	<path fill="#F6A600" d="M172.271,10.148v11.313c0,0.754,0.377,1.131,1.131,1.131h2.263c0.754,0,1.131-0.377,1.131-1.131V10.148
		h3.395v11.313c0,3.017-1.509,4.525-4.525,4.525h-2.263c-3.018,0-4.525-1.508-4.525-4.525V10.148H172.271z"/>
	<path fill="#F6A600" d="M184.829,10.148l3.281,5.657l3.281-5.657h3.507l-5.091,9.051v6.788h-3.395v-6.788l-5.091-9.051H184.829z"/>
	<path fill="#F6A600" d="M200.555,23.724l-1.132,3.394h-3.394l1.131-3.394H200.555z"/>
	<path fill="#F6A600" d="M218.656,10.148v3.394h-3.96v12.445h-3.394V13.542h-3.96v-3.394H218.656z"/>
	<path fill="#F6A600" d="M232.797,21.461c0,3.017-1.508,4.525-4.524,4.525h-2.828c-3.017,0-4.525-1.508-4.525-4.525v-6.788
		c0-3.017,1.509-4.525,4.525-4.525h2.828c3.017,0,4.524,1.509,4.524,4.525V21.461z M224.313,21.461c0,0.754,0.377,1.131,1.131,1.131
		h2.828c0.754,0,1.131-0.377,1.131-1.131v-6.788c0-0.754-0.377-1.131-1.131-1.131h-2.828c-0.754,0-1.131,0.377-1.131,1.131V21.461z"
		/>
	<path fill="#F6A600" d="M238.454,20.33v5.657h-3.394V10.148h6.788c3.017,0,4.524,1.509,4.524,4.525v1.131
		c0,3.017-1.509,4.525-4.524,4.525L238.454,20.33L238.454,20.33z M238.454,13.542v3.394h3.395c0.754,0,1.131-0.377,1.131-1.131
		v-1.131c0-0.754-0.377-1.131-1.131-1.131L238.454,13.542L238.454,13.542z"/>
	<path fill="#F6A600" d="M255.424,16.371v3.394h-6.787v-3.394H255.424z"/>
	<path fill="#F6A600" d="M261.081,10.148v11.313c0,0.754,0.377,1.131,1.131,1.131h2.264c0.755,0,1.132-0.377,1.132-1.131V10.148H269
		v11.313c0,3.017-1.508,4.525-4.524,4.525h-2.264c-3.017,0-4.524-1.508-4.524-4.525V10.148H261.081z"/>
	<path fill="#F6A600" d="M274.657,20.33v5.657h-3.395V10.148h6.787c3.019,0,4.525,1.509,4.525,4.525v1.131
		c0,3.017-1.508,4.525-4.525,4.525L274.657,20.33L274.657,20.33z M274.657,13.542v3.394h3.395c0.755,0,1.132-0.377,1.132-1.131
		v-1.131c0-0.754-0.377-1.131-1.132-1.131L274.657,13.542L274.657,13.542z"/>
	<path fill="#F6A600" d="M301.244,21.461c0,3.017-1.509,4.525-4.524,4.525h-2.829c-3.018,0-4.525-1.508-4.525-4.525v-6.788
		c0-3.017,1.509-4.525,4.525-4.525h2.829c3.017,0,4.524,1.509,4.524,4.525V21.461z M292.759,21.461c0,0.754,0.378,1.131,1.132,1.131
		h2.829c0.754,0,1.131-0.377,1.131-1.131v-6.788c0-0.754-0.377-1.131-1.131-1.131h-2.829c-0.754,0-1.132,0.377-1.132,1.131V21.461z"
		/>
	<path fill="#F6A600" d="M309.163,20.33H306.9v5.657h-3.395V10.148h6.788c3.018,0,4.524,1.509,4.524,4.525v1.131
		c0,1.848-0.692,3.153-2.081,3.915l2.081,6.268h-3.394L309.163,20.33z M306.9,13.542v3.394h3.395c0.755,0,1.132-0.377,1.132-1.131
		v-1.131c0-0.754-0.377-1.131-1.132-1.131L306.9,13.542L306.9,13.542z"/>
	<path fill="#F6A600" d="M327.265,20.33h-2.263v5.657h-3.396V10.148h6.788c3.018,0,4.525,1.509,4.525,4.525v1.131
		c0,1.848-0.693,3.153-2.081,3.915l2.081,6.268h-3.395L327.265,20.33z M325.003,13.542v3.394h3.394c0.755,0,1.132-0.377,1.132-1.131
		v-1.131c0-0.754-0.377-1.131-1.132-1.131L325.003,13.542L325.003,13.542z"/>
	<path fill="#F6A600" d="M345.365,16.371v3.394h-6.788v2.828h6.788v3.394h-10.183V10.148h10.183v3.394h-6.788v2.829H345.365z"/>
	<path fill="#F6A600" d="M351.022,10.148l5.656,9.617v-9.617h3.395v15.839h-3.395l-5.656-9.616v9.616h-3.395V10.148H351.022z"/>
	<path fill="#F6A600" d="M372.518,16.371v3.394h-6.788v2.828h6.788v3.394h-10.183V10.148h10.183v3.394h-6.788v2.829H372.518z"/>
	<path fill="#F6A600" d="M390.96,25.987h-5.204l-1.925-9.967l-1.923,9.967h-5.204l-3.055-15.839h3.395l2.263,11.313l2.263-11.313
		h4.525l2.263,11.313l2.263-11.313h3.396L390.96,25.987z"/>
	<path fill="#F6A600" d="M406.457,10.148c3.019,0,4.525,1.509,4.525,4.525c0,2.037-0.641,3.168-1.923,3.394
		c1.282,0.227,1.923,1.358,1.923,3.394c0,3.017-1.508,4.525-4.525,4.525h-6.787V10.148H406.457z M403.063,13.542v2.829h3.394
		c0.756,0,1.133-0.377,1.133-1.131v-0.566c0-0.754-0.377-1.131-1.133-1.131L403.063,13.542L403.063,13.542z M403.063,19.765v2.828
		h3.394c0.756,0,1.133-0.377,1.133-1.131v-0.565c0-0.754-0.377-1.131-1.133-1.131L403.063,19.765L403.063,19.765z"/>
	<path fill="#F6A600" d="M423.428,16.371v3.394h-6.788v2.828h6.788v3.394h-10.184V10.148h10.184v3.394h-6.788v2.829H423.428z"/>
	<path fill="#F6A600" d="M429.086,22.593h6.787v3.394H425.69V10.148h3.396V22.593z"/>
	<path fill="#F6A600" d="M450.015,21.461c0,3.017-1.509,4.525-4.525,4.525h-2.829c-3.017,0-4.524-1.508-4.524-4.525v-6.788
		c0-3.017,1.509-4.525,4.524-4.525h2.829c3.018,0,4.525,1.509,4.525,4.525V21.461z M441.529,21.461c0,0.754,0.377,1.131,1.131,1.131
		h2.829c0.754,0,1.131-0.377,1.131-1.131v-6.788c0-0.754-0.377-1.131-1.131-1.131h-2.829c-0.754,0-1.131,0.377-1.131,1.131V21.461z"
		/>
	<path fill="#F6A600" d="M468.455,25.987h-5.204l-1.924-9.967l-1.923,9.967H454.2l-3.055-15.839h3.394l2.264,11.313l2.263-11.313
		h4.525l2.263,11.313l2.263-11.313h3.396L468.455,25.987z"/>
</g>
<g>
	<g>
		<defs>
			<path id="SVGID_1_" d="M13.932,133.39c0,39.427,31.959,71.396,71.388,71.396c39.43,0,71.396-31.969,71.396-71.396
				c0-39.429-31.966-71.396-71.396-71.396C45.892,61.993,13.932,93.96,13.932,133.39"/>
		</defs>
		<clipPath id="SVGID_2_">
			<use xlink:href="#SVGID_1_"  overflow="visible"/>
		</clipPath>
		
			<radialGradient id="SVGID_3_" cx="-28.1716" cy="-477.249" r="2.0035" gradientTransform="matrix(162.4139 0 0 162.4139 4657.5801 77530.8281)" gradientUnits="userSpaceOnUse">
			<stop  offset="0" style="stop-color:#F9FAFA"/>
			<stop  offset="0.1196" style="stop-color:#F6F6F6"/>
			<stop  offset="0.227" style="stop-color:#EEEDEC"/>
			<stop  offset="0.3298" style="stop-color:#DEDCDA"/>
			<stop  offset="0.4297" style="stop-color:#C7C5C2"/>
			<stop  offset="0.5268" style="stop-color:#ACA9A4"/>
			<stop  offset="0.5376" style="stop-color:#A8A5A0"/>
			<stop  offset="0.8458" style="stop-color:#44413E"/>
			<stop  offset="1" style="stop-color:#FAFAFA"/>
		</radialGradient>
		<rect x="13.932" y="61.993" clip-path="url(#SVGID_2_)" fill="url(#SVGID_3_)" width="142.783" height="142.792"/>
	</g>
</g>
<g>
	<g>
		<defs>
			<path id="SVGID_4_" d="M22.738,133.385c0,34.567,28.02,62.592,62.586,62.592s62.582-28.025,62.582-62.592
				c0-34.562-28.016-62.583-62.582-62.583S22.738,98.823,22.738,133.385"/>
		</defs>
		<clipPath id="SVGID_5_">
			<use xlink:href="#SVGID_4_"  overflow="visible"/>
		</clipPath>
		
			<linearGradient id="SVGID_6_" gradientUnits="userSpaceOnUse" x1="-30.2312" y1="-476.5981" x2="-28.2272" y2="-476.5981" gradientTransform="matrix(0 -129.8362 129.8362 0 61965.0352 -3640.1567)">
			<stop  offset="0" style="stop-color:#F6F6F5"/>
			<stop  offset="1" style="stop-color:#797671"/>
		</linearGradient>
		<rect x="22.738" y="70.803" clip-path="url(#SVGID_5_)" fill="url(#SVGID_6_)" width="125.168" height="125.175"/>
	</g>
</g>
<g>
	<g>
		<defs>
			<path id="SVGID_7_" d="M23.992,133.39c0,33.877,27.458,61.334,61.333,61.334c33.871,0,61.331-27.457,61.331-61.334
				c0-33.87-27.46-61.333-61.331-61.333C51.449,72.056,23.992,99.52,23.992,133.39"/>
		</defs>
		<clipPath id="SVGID_8_">
			<use xlink:href="#SVGID_7_"  overflow="visible"/>
		</clipPath>
		
			<linearGradient id="SVGID_9_" gradientUnits="userSpaceOnUse" x1="-27.4612" y1="-475.8931" x2="-25.4563" y2="-475.8931" gradientTransform="matrix(61.1867 0 0 61.1867 1704.2681 29251.752)">
			<stop  offset="0" style="stop-color:#F9B70F"/>
			<stop  offset="0.15" style="stop-color:#F9B70F"/>
			<stop  offset="0.85" style="stop-color:#FFD636"/>
			<stop  offset="1" style="stop-color:#FFD636"/>
		</linearGradient>
		<rect x="23.992" y="72.056" clip-path="url(#SVGID_8_)" fill="url(#SVGID_9_)" width="122.664" height="122.667"/>
	</g>
</g>
<g>
	<path fill="#E15314" d="M67.819,112.358h-3.637v-5.455h9.092v25.457h-5.455V112.358z"/>
	<path fill="#E15314" d="M94.185,125.087c0,4.849-2.426,7.273-7.273,7.273h-2.728c-4.85,0-7.273-2.424-7.273-7.273v-10.91
		c0-4.849,2.424-7.273,7.273-7.273h2.728c4.85,0,7.273,2.425,7.273,7.273V125.087z M82.366,119.45l6.364-5.273
		c0-1.212-0.606-1.818-1.818-1.818h-2.728c-1.212,0-1.818,0.606-1.818,1.818V119.45z M88.73,119.814l-6.364,5.273
		c0,1.212,0.606,1.818,1.818,1.818h2.728c1.212,0,1.818-0.606,1.818-1.818V119.814z"/>
</g>
<g>
	<path fill="#E15314" d="M98.702,119.785h-2.023l3.509-12.146h2.023L98.702,119.785z"/>
	<path fill="#E15314" d="M107.61,112.7v2.024h-4.049V112.7H107.61z"/>
</g>
<g>
	<path fill="#E15314" d="M64.39,103.931v-4.704h1.008v2.184l1.276-2.184h1.075l-1.411,2.352l1.411,2.352h-1.075l-1.276-2.184v2.184
		H64.39z"/>
	<path fill="#E15314" d="M68.254,103.931v-1.008h2.017c0.224,0,0.336-0.112,0.336-0.336v-0.168c0-0.224-0.112-0.336-0.336-0.336
		h-0.672c-0.896,0-1.345-0.448-1.345-1.344v-0.168c0-0.896,0.448-1.344,1.345-1.344h2.016v1.008h-2.016
		c-0.225,0-0.336,0.112-0.336,0.336v0.168c0,0.224,0.111,0.336,0.336,0.336h0.672c0.896,0,1.344,0.448,1.344,1.344v0.168
		c0,0.896-0.448,1.344-1.344,1.344H68.254z"/>
	<path fill="#E15314" d="M73.293,99.228v1.848h1.345v-1.848h1.008v4.704h-1.008v-1.848h-1.345v1.848h-1.008v-4.704H73.293z"/>
</g>
<g>
	<path fill="#E15314" d="M41.224,160.527v-5.292h9.701c1.177,0,1.765-0.588,1.765-1.764v-0.882c0-1.176-0.588-1.764-1.765-1.764
		h-9.701v-14.994h16.757v5.292H46.515v4.41h4.409c4.704,0,7.057,2.352,7.057,7.056v0.882c0,4.704-2.353,7.056-7.057,7.056H41.224z"
		/>
	<path fill="#E15314" d="M78.266,153.471c0,4.704-2.353,7.056-7.057,7.056h-2.646c-4.704,0-7.057-2.352-7.057-7.056v-10.584
		c0-4.704,2.353-7.056,7.057-7.056h2.646c4.704,0,7.057,2.352,7.057,7.056V153.471z M66.8,148.003l6.175-5.116
		c0-1.176-0.588-1.764-1.765-1.764h-2.646c-1.176,0-1.765,0.588-1.765,1.764V148.003L66.8,148.003z M72.974,148.355l-6.175,5.116
		c0,1.176,0.589,1.764,1.765,1.764h2.646c1.177,0,1.765-0.588,1.765-1.764V148.355z"/>
	<path fill="#E15314" d="M81.794,135.832h7.408l5.821,14.994l5.821-14.994h7.408v24.695h-5.292v-14.994l-5.645,14.994H92.73
		l-5.646-14.994v14.994h-5.292L81.794,135.832L81.794,135.832z"/>
	<path fill="#E15314" d="M122.365,135.832c4.704,0,7.056,2.352,7.056,7.056c0,3.175-1,4.939-2.999,5.292
		c1.999,0.353,2.999,2.117,2.999,5.292c0,4.704-2.352,7.056-7.056,7.056h-10.583v-24.695L122.365,135.832L122.365,135.832z
		 M117.073,141.124v4.41h5.292c1.176,0,1.764-0.588,1.764-1.764v-0.882c0-1.176-0.588-1.764-1.764-1.764H117.073L117.073,141.124z
		 M117.073,150.825v4.41h5.292c1.176,0,1.764-0.588,1.764-1.764v-0.882c0-1.176-0.588-1.764-1.764-1.764H117.073L117.073,150.825z"
		/>
</g>
<g>
	<g>
		<defs>
			<path id="SVGID_10_" d="M13.216,285.935c0,39.819,32.279,72.11,72.104,72.11c39.829,0,72.11-32.291,72.11-72.11
				s-32.281-72.11-72.11-72.11C45.496,213.823,13.216,246.114,13.216,285.935"/>
		</defs>
		<clipPath id="SVGID_11_">
			<use xlink:href="#SVGID_10_"  overflow="visible"/>
		</clipPath>
		
			<radialGradient id="SVGID_12_" cx="-28.179" cy="-476.7886" r="2.0039" gradientTransform="matrix(164.0416 0 0 164.0416 4704.7959 78383.3359)" gradientUnits="userSpaceOnUse">
			<stop  offset="0" style="stop-color:#F9FAFA"/>
			<stop  offset="0.1196" style="stop-color:#F6F6F6"/>
			<stop  offset="0.227" style="stop-color:#EEEDEC"/>
			<stop  offset="0.3298" style="stop-color:#DEDCDA"/>
			<stop  offset="0.4297" style="stop-color:#C7C5C2"/>
			<stop  offset="0.5268" style="stop-color:#ACA9A4"/>
			<stop  offset="0.5376" style="stop-color:#A8A5A0"/>
			<stop  offset="0.8458" style="stop-color:#44413E"/>
			<stop  offset="1" style="stop-color:#FAFAFA"/>
		</radialGradient>
		<rect x="13.216" y="213.823" clip-path="url(#SVGID_11_)" fill="url(#SVGID_12_)" width="144.215" height="144.223"/>
	</g>
</g>
<g>
	<g>
		<defs>
			<path id="SVGID_13_" d="M22.112,285.935c0,34.91,28.302,63.217,63.212,63.217c34.911,0,63.208-28.307,63.208-63.217
				c0-34.914-28.297-63.211-63.208-63.211C50.414,222.724,22.112,251.021,22.112,285.935"/>
		</defs>
		<clipPath id="SVGID_14_">
			<use xlink:href="#SVGID_13_"  overflow="visible"/>
		</clipPath>
		
			<linearGradient id="SVGID_15_" gradientUnits="userSpaceOnUse" x1="-30.8059" y1="-476.6074" x2="-28.8028" y2="-476.6074" gradientTransform="matrix(0 -131.1374 131.1374 0 62586.3906 -3600.9385)">
			<stop  offset="0" style="stop-color:#F6F6F5"/>
			<stop  offset="1" style="stop-color:#797671"/>
		</linearGradient>
		<rect x="22.112" y="222.724" clip-path="url(#SVGID_14_)" fill="url(#SVGID_15_)" width="126.421" height="126.428"/>
	</g>
</g>
<g>
	<g>
		<defs>
			<path id="SVGID_16_" d="M23.377,285.935c0,34.215,27.734,61.946,61.947,61.946c34.212,0,61.944-27.731,61.944-61.946
				c0-34.211-27.732-61.947-61.944-61.947C51.111,223.987,23.377,251.724,23.377,285.935"/>
		</defs>
		<clipPath id="SVGID_17_">
			<use xlink:href="#SVGID_16_"  overflow="visible"/>
		</clipPath>
		
			<linearGradient id="SVGID_18_" gradientUnits="userSpaceOnUse" x1="-27.4802" y1="-474.6724" x2="-25.4753" y2="-474.6724" gradientTransform="matrix(61.7999 0 0 61.7999 1721.6528 29620.6738)">
			<stop  offset="0" style="stop-color:#6B206E"/>
			<stop  offset="0.15" style="stop-color:#6B206E"/>
			<stop  offset="0.85" style="stop-color:#8A3488"/>
			<stop  offset="1" style="stop-color:#8A3488"/>
		</linearGradient>
		<rect x="23.377" y="223.987" clip-path="url(#SVGID_17_)" fill="url(#SVGID_18_)" width="123.892" height="123.895"/>
	</g>
</g>
<g>
	<path fill="#A3C300" d="M60.091,284.905v-8.182c0-4.85,2.425-7.273,7.273-7.273h2.728c1.213,0,1.818-0.605,1.818-1.818v-0.909
		c0-1.212-0.605-1.818-1.818-1.818H60.091v-5.454h10.001c4.85,0,7.273,2.426,7.273,7.272v0.909c0,4.851-2.425,7.273-7.273,7.273
		h-2.728c-1.212,0-1.818,0.605-1.818,1.818v2.727h11.819v5.455H60.091z"/>
	<path fill="#A3C300" d="M98.277,277.631c0,4.851-2.425,7.273-7.273,7.273h-2.728c-4.849,0-7.273-2.424-7.273-7.273v-10.909
		c0-4.849,2.425-7.272,7.273-7.272h2.728c4.85,0,7.273,2.426,7.273,7.272V277.631z M86.458,271.995l6.364-5.272
		c0-1.212-0.606-1.818-1.818-1.818h-2.728c-1.212,0-1.818,0.606-1.818,1.818V271.995z M92.822,272.358l-6.364,5.273
		c0,1.213,0.606,1.818,1.818,1.818h2.728c1.212,0,1.818-0.605,1.818-1.818V272.358z"/>
</g>
<g>
	<path fill="#A3C300" d="M102.791,272.331h-2.023l3.509-12.146h2.023L102.791,272.331z"/>
	<path fill="#A3C300" d="M111.699,265.245v2.023h-4.049v-2.023H111.699z"/>
</g>
<g>
	<path fill="#A3C300" d="M60.303,256.479v-4.703h1.008v2.184l1.276-2.184h1.075l-1.411,2.352l1.411,2.353h-1.075l-1.276-2.185v2.185
		L60.303,256.479L60.303,256.479z"/>
	<path fill="#A3C300" d="M64.167,256.479v-1.008h2.017c0.224,0,0.336-0.111,0.336-0.336v-0.168c0-0.223-0.112-0.336-0.336-0.336
		H65.51c-0.896,0-1.345-0.447-1.345-1.344v-0.168c0-0.896,0.448-1.345,1.345-1.345h2.016v1.009H65.51
		c-0.225,0-0.337,0.11-0.337,0.336v0.168c0,0.225,0.112,0.336,0.337,0.336h0.672c0.896,0,1.344,0.446,1.344,1.344v0.168
		c0,0.896-0.448,1.344-1.344,1.344H64.167z"/>
	<path fill="#A3C300" d="M69.206,251.776v1.848h1.344v-1.848h1.009v4.703H70.55v-1.848h-1.344v1.848h-1.008v-4.703H69.206z"/>
</g>
<g>
	<path fill="#A3C300" d="M38.58,293.672h-3.527v-5.291h8.818v24.695H38.58V293.672z"/>
	<path fill="#A3C300" d="M64.157,306.021c0,4.705-2.352,7.058-7.056,7.058h-2.646c-4.704,0-7.056-2.353-7.056-7.058v-10.584
		c0-4.703,2.352-7.056,7.056-7.056h2.646c4.704,0,7.056,2.353,7.056,7.056V306.021z M52.691,300.551l6.174-5.114
		c0-1.176-0.588-1.765-1.764-1.765h-2.646c-1.176,0-1.764,0.589-1.764,1.765V300.551z M58.865,300.905l-6.174,5.115
		c0,1.176,0.588,1.764,1.764,1.764h2.646c1.176,0,1.764-0.588,1.764-1.764V300.905z"/>
	<path fill="#A3C300" d="M84.442,306.021c0,4.705-2.353,7.058-7.056,7.058H74.74c-4.704,0-7.056-2.353-7.056-7.058v-10.584
		c0-4.703,2.352-7.056,7.056-7.056h2.646c4.703,0,7.056,2.353,7.056,7.056V306.021z M72.977,300.551l6.174-5.114
		c0-1.176-0.588-1.765-1.764-1.765h-2.646c-1.176,0-1.764,0.589-1.764,1.765V300.551z M79.15,300.905l-6.174,5.115
		c0,1.176,0.588,1.764,1.764,1.764h2.646c1.176,0,1.764-0.588,1.764-1.764V300.905z"/>
	<path fill="#A3C300" d="M87.971,288.381h7.407l5.821,14.992l5.821-14.992h7.409v24.695h-5.292v-14.994l-5.646,14.994h-4.586
		l-5.645-14.994v14.994H87.97L87.971,288.381L87.971,288.381z"/>
	<path fill="#A3C300" d="M128.541,288.381c4.704,0,7.057,2.353,7.057,7.056c0,3.176-1,4.938-2.999,5.293
		c1.999,0.353,2.999,2.117,2.999,5.291c0,4.705-2.353,7.058-7.057,7.058h-10.583v-24.695h10.583V288.381z M123.249,293.672v4.41
		h5.292c1.176,0,1.765-0.588,1.765-1.764v-0.883c0-1.176-0.589-1.764-1.765-1.764H123.249L123.249,293.672z M123.249,303.374v4.41
		h5.292c1.176,0,1.765-0.588,1.765-1.764v-0.881c0-1.176-0.589-1.766-1.765-1.766H123.249L123.249,303.374z"/>
</g>
<g>
	<g>
		<defs>
			<path id="SVGID_19_" d="M222.682,133.39c0,40.065,32.473,72.545,72.538,72.545c40.064,0,72.543-32.48,72.543-72.545
				c0-40.06-32.479-72.542-72.543-72.542C255.155,60.848,222.682,93.33,222.682,133.39"/>
		</defs>
		<clipPath id="SVGID_20_">
			<use xlink:href="#SVGID_19_"  overflow="visible"/>
		</clipPath>
		
			<radialGradient id="SVGID_21_" cx="-27.5457" cy="-477.2573" r="2.0025" gradientTransform="matrix(165.0242 0 0 165.0242 4837.7607 78775.9609)" gradientUnits="userSpaceOnUse">
			<stop  offset="0" style="stop-color:#F9FAFA"/>
			<stop  offset="0.1196" style="stop-color:#F6F6F6"/>
			<stop  offset="0.227" style="stop-color:#EEEDEC"/>
			<stop  offset="0.3298" style="stop-color:#DEDCDA"/>
			<stop  offset="0.4297" style="stop-color:#C7C5C2"/>
			<stop  offset="0.5268" style="stop-color:#ACA9A4"/>
			<stop  offset="0.5376" style="stop-color:#A8A5A0"/>
			<stop  offset="0.8458" style="stop-color:#44413E"/>
			<stop  offset="1" style="stop-color:#FAFAFA"/>
		</radialGradient>
		<rect x="222.682" y="60.848" clip-path="url(#SVGID_20_)" fill="url(#SVGID_21_)" width="145.081" height="145.086"/>
	</g>
</g>
<g>
	<g>
		<defs>
			<path id="SVGID_22_" d="M231.633,133.385c0,35.127,28.47,63.596,63.588,63.596c35.124,0,63.591-28.469,63.591-63.596
				c0-35.116-28.467-63.589-63.591-63.589C260.102,69.796,231.633,98.269,231.633,133.385"/>
		</defs>
		<clipPath id="SVGID_23_">
			<use xlink:href="#SVGID_22_"  overflow="visible"/>
		</clipPath>
		
			<linearGradient id="SVGID_24_" gradientUnits="userSpaceOnUse" x1="-30.2214" y1="-475.8159" x2="-28.2153" y2="-475.8159" gradientTransform="matrix(0 -131.9229 131.9229 0 63066.2266 -3699.3557)">
			<stop  offset="0" style="stop-color:#F6F6F5"/>
			<stop  offset="1" style="stop-color:#797671"/>
		</linearGradient>
		<rect x="231.633" y="69.796" clip-path="url(#SVGID_23_)" fill="url(#SVGID_24_)" width="127.179" height="127.185"/>
	</g>
</g>
<g>
	<path fill="#431C55" d="M357.54,133.39c0,34.418-27.899,62.319-62.317,62.319c-34.416,0-62.318-27.901-62.318-62.319
		c0-34.413,27.902-62.32,62.318-62.32C329.64,71.069,357.54,98.977,357.54,133.39"/>
</g>
<g>
	<path fill="#A3C300" d="M269.989,132.36v-5.455h10.001c1.212,0,1.818-0.606,1.818-1.818v-0.909c0-1.212-0.606-1.818-1.818-1.818
		h-10.001v-15.456h17.274v5.455h-11.819v4.546h4.546c4.849,0,7.273,2.425,7.273,7.273v0.909c0,4.849-2.426,7.273-7.273,7.273
		H269.989z"/>
	<path fill="#A3C300" d="M308.176,125.087c0,4.849-2.425,7.273-7.273,7.273h-2.729c-4.849,0-7.272-2.424-7.272-7.273v-10.91
		c0-4.849,2.425-7.273,7.272-7.273h2.729c4.849,0,7.273,2.425,7.273,7.273V125.087z M296.355,119.45l6.364-5.273
		c0-1.212-0.606-1.818-1.818-1.818h-2.729c-1.212,0-1.817,0.606-1.817,1.818V119.45L296.355,119.45z M302.72,119.814l-6.364,5.273
		c0,1.212,0.605,1.818,1.817,1.818h2.729c1.212,0,1.818-0.606,1.818-1.818V119.814L302.72,119.814z"/>
</g>
<g>
	<path fill="#A3C300" d="M312.691,119.785h-2.023l3.509-12.146h2.023L312.691,119.785z"/>
	<path fill="#A3C300" d="M321.599,112.7v2.024h-4.049V112.7H321.599z"/>
</g>
<g>
	<path fill="#A3C300" d="M270.198,103.931v-4.704h1.008v2.184l1.276-2.184h1.075l-1.411,2.352l1.411,2.352h-1.075l-1.276-2.184
		v2.184H270.198z"/>
	<path fill="#A3C300" d="M274.062,103.931v-1.008h2.016c0.226,0,0.336-0.112,0.336-0.336v-0.168c0-0.224-0.11-0.336-0.336-0.336
		h-0.672c-0.896,0-1.344-0.448-1.344-1.344v-0.168c0-0.896,0.448-1.344,1.344-1.344h2.016v1.008h-2.016
		c-0.224,0-0.336,0.112-0.336,0.336v0.168c0,0.224,0.112,0.336,0.336,0.336h0.672c0.896,0,1.344,0.448,1.344,1.344v0.168
		c0,0.896-0.446,1.344-1.344,1.344H274.062z"/>
	<path fill="#A3C300" d="M279.102,99.228v1.848h1.344v-1.848h1.008v4.704h-1.008v-1.848h-1.344v1.848h-1.008v-4.704H279.102z"/>
</g>
<g>
	<path fill="#A3C300" d="M241.418,145.533h8.819c1.176,0,1.764-0.588,1.764-1.764v-0.882c0-1.176-0.588-1.764-1.764-1.764h-8.819
		v-5.292h8.819c4.704,0,7.056,2.352,7.056,7.056c0,3.175-1,4.939-2.999,5.292c1.999,0.353,2.999,2.117,2.999,5.292
		c0,4.704-2.352,7.056-7.056,7.056h-8.819v-5.292h8.819c1.176,0,1.764-0.588,1.764-1.764v-0.882c0-1.176-0.588-1.764-1.764-1.764
		h-8.819V145.533z"/>
	<path fill="#A3C300" d="M277.579,153.471c0,4.704-2.353,7.056-7.056,7.056h-2.646c-4.703,0-7.056-2.352-7.056-7.056v-10.584
		c0-4.704,2.353-7.056,7.056-7.056h2.646c4.703,0,7.056,2.352,7.056,7.056V153.471z M266.113,148.003l6.174-5.116
		c0-1.176-0.588-1.764-1.764-1.764h-2.646c-1.176,0-1.764,0.588-1.764,1.764V148.003z M272.287,148.355l-6.174,5.116
		c0,1.176,0.588,1.764,1.764,1.764h2.646c1.176,0,1.764-0.588,1.764-1.764V148.355z"/>
	<path fill="#A3C300" d="M297.864,153.471c0,4.704-2.353,7.056-7.056,7.056h-2.646c-4.703,0-7.056-2.352-7.056-7.056v-10.584
		c0-4.704,2.353-7.056,7.056-7.056h2.646c4.703,0,7.056,2.352,7.056,7.056V153.471z M286.398,148.003l6.174-5.116
		c0-1.176-0.588-1.764-1.764-1.764h-2.646c-1.176,0-1.764,0.588-1.764,1.764V148.003z M292.572,148.355l-6.174,5.116
		c0,1.176,0.588,1.764,1.764,1.764h2.646c1.176,0,1.764-0.588,1.764-1.764V148.355z"/>
	<path fill="#A3C300" d="M301.393,135.832h7.409l5.819,14.994l5.821-14.994h7.409v24.695h-5.292v-14.994l-5.646,14.994h-4.587
		l-5.645-14.994v14.994h-5.292v-24.695H301.393z"/>
	<path fill="#A3C300" d="M341.964,135.832c4.704,0,7.056,2.352,7.056,7.056c0,3.175-1,4.939-2.999,5.292
		c1.999,0.353,2.999,2.117,2.999,5.292c0,4.704-2.352,7.056-7.056,7.056H331.38v-24.695L341.964,135.832L341.964,135.832z
		 M336.672,141.124v4.41h5.292c1.176,0,1.764-0.588,1.764-1.764v-0.882c0-1.176-0.588-1.764-1.764-1.764H336.672L336.672,141.124z
		 M336.672,150.825v4.41h5.292c1.176,0,1.764-0.588,1.764-1.764v-0.882c0-1.176-0.588-1.764-1.764-1.764H336.672L336.672,150.825z"
		/>
</g>
<g>
	<g>
		<defs>
			<path id="SVGID_25_" d="M380.502,133.39c0,39.41,31.941,71.356,71.354,71.356c39.409,0,71.351-31.947,71.351-71.356
				c0-39.408-31.94-71.357-71.351-71.357C412.443,62.032,380.502,93.982,380.502,133.39"/>
		</defs>
		<clipPath id="SVGID_26_">
			<use xlink:href="#SVGID_25_"  overflow="visible"/>
		</clipPath>
		
			<radialGradient id="SVGID_27_" cx="-27.0403" cy="-477.248" r="2.0025" gradientTransform="matrix(162.327 0 0 162.327 4837.9697 77489.2891)" gradientUnits="userSpaceOnUse">
			<stop  offset="0" style="stop-color:#F9FAFA"/>
			<stop  offset="0.1196" style="stop-color:#F6F6F6"/>
			<stop  offset="0.227" style="stop-color:#EEEDEC"/>
			<stop  offset="0.3298" style="stop-color:#DEDCDA"/>
			<stop  offset="0.4297" style="stop-color:#C7C5C2"/>
			<stop  offset="0.5268" style="stop-color:#ACA9A4"/>
			<stop  offset="0.5376" style="stop-color:#A8A5A0"/>
			<stop  offset="0.8458" style="stop-color:#44413E"/>
			<stop  offset="1" style="stop-color:#FAFAFA"/>
		</radialGradient>
		<rect x="380.502" y="62.032" clip-path="url(#SVGID_26_)" fill="url(#SVGID_27_)" width="142.703" height="142.714"/>
	</g>
</g>
<g>
	<g>
		<defs>
			<path id="SVGID_28_" d="M389.302,133.382c0,34.555,28.004,62.558,62.553,62.558c34.548,0,62.548-28.003,62.548-62.558
				c0-34.544-28-62.546-62.548-62.546C417.306,70.836,389.302,98.838,389.302,133.382"/>
		</defs>
		<clipPath id="SVGID_29_">
			<use xlink:href="#SVGID_28_"  overflow="visible"/>
		</clipPath>
		
			<linearGradient id="SVGID_30_" gradientUnits="userSpaceOnUse" x1="-30.2327" y1="-475.1831" x2="-28.2286" y2="-475.1831" gradientTransform="matrix(0 -129.7643 129.7643 0 62113.6133 -3638.2468)">
			<stop  offset="0" style="stop-color:#F6F6F5"/>
			<stop  offset="1" style="stop-color:#797671"/>
		</linearGradient>
		<rect x="389.302" y="70.836" clip-path="url(#SVGID_29_)" fill="url(#SVGID_30_)" width="125.101" height="125.104"/>
	</g>
</g>
<g>
	<path fill="#418BA1" d="M513.154,133.386c0,33.859-27.448,61.306-61.3,61.306c-33.858,0-61.299-27.447-61.299-61.306
		c0-33.85,27.439-61.298,61.299-61.298C485.706,72.088,513.154,99.536,513.154,133.386"/>
</g>
<g>
	<path fill="#FFFFFF" d="M423.894,112.358h-3.637v-5.455h9.092v25.457h-5.455V112.358L423.894,112.358z"/>
	<path fill="#FFFFFF" d="M450.26,125.087c0,4.849-2.425,7.273-7.273,7.273h-2.728c-4.85,0-7.273-2.424-7.273-7.273v-10.91
		c0-4.849,2.425-7.273,7.273-7.273h2.728c4.85,0,7.273,2.425,7.273,7.273V125.087z M438.44,119.45l6.364-5.273
		c0-1.212-0.606-1.818-1.818-1.818h-2.728c-1.212,0-1.818,0.606-1.818,1.818V119.45L438.44,119.45z M444.805,119.814l-6.364,5.273
		c0,1.212,0.606,1.818,1.818,1.818h2.728c1.212,0,1.818-0.606,1.818-1.818V119.814L444.805,119.814z"/>
	<path fill="#FFFFFF" d="M471.172,125.087c0,4.849-2.426,7.273-7.273,7.273h-2.728c-4.85,0-7.273-2.424-7.273-7.273v-10.91
		c0-4.849,2.425-7.273,7.273-7.273h2.728c4.849,0,7.273,2.425,7.273,7.273V125.087z M459.352,119.45l6.364-5.273
		c0-1.212-0.606-1.818-1.818-1.818h-2.728c-1.213,0-1.818,0.606-1.818,1.818V119.45L459.352,119.45z M465.717,119.814l-6.364,5.273
		c0,1.212,0.605,1.818,1.818,1.818h2.728c1.212,0,1.818-0.606,1.818-1.818V119.814L465.717,119.814z"/>
</g>
<g>
	<path fill="#FFFFFF" d="M475.687,119.785h-2.024l3.51-12.146h2.023L475.687,119.785z"/>
	<path fill="#FFFFFF" d="M484.594,112.7v2.024h-4.049V112.7H484.594z"/>
</g>
<g>
	<path fill="#FFFFFF" d="M420.466,103.931v-4.704h1.008v2.184l1.275-2.184h1.075l-1.411,2.352l1.411,2.352h-1.075l-1.275-2.184
		v2.184H420.466z"/>
	<path fill="#FFFFFF" d="M424.328,103.931v-1.008h2.017c0.225,0,0.336-0.112,0.336-0.336v-0.168c0-0.224-0.111-0.336-0.336-0.336
		h-0.672c-0.896,0-1.345-0.448-1.345-1.344v-0.168c0-0.896,0.448-1.344,1.345-1.344h2.016v1.008h-2.016
		c-0.225,0-0.336,0.112-0.336,0.336v0.168c0,0.224,0.111,0.336,0.336,0.336h0.672c0.896,0,1.344,0.448,1.344,1.344v0.168
		c0,0.896-0.447,1.344-1.344,1.344H424.328z"/>
	<path fill="#FFFFFF" d="M429.368,99.228v1.848h1.345v-1.848h1.008v4.704h-1.008v-1.848h-1.345v1.848h-1.008v-4.704H429.368z"/>
</g>
<g>
	<path fill="#FFFFFF" d="M402.905,145.533h5.292c4.704,0,7.057,2.352,7.057,7.056v0.882c0,4.704-2.353,7.056-7.057,7.056h-3.527
		c-4.703,0-7.057-2.352-7.057-7.056v-8.82c0-5.88,2.94-8.82,8.82-8.82h7.056v5.292h-7.056c-2.354,0-3.528,1.176-3.528,3.528V145.533
		L402.905,145.533z M402.905,150.825v2.646c0,1.176,0.588,1.764,1.765,1.764h3.527c1.176,0,1.765-0.588,1.765-1.764v-0.882
		c0-1.176-0.589-1.764-1.765-1.764H402.905L402.905,150.825z"/>
	<path fill="#FFFFFF" d="M418.78,160.527v-5.292h9.702c1.176,0,1.764-0.588,1.764-1.764v-0.882c0-1.176-0.588-1.764-1.764-1.764
		h-9.702v-14.994h16.758v5.292h-11.466v4.41h4.41c4.703,0,7.056,2.352,7.056,7.056v0.882c0,4.704-2.353,7.056-7.056,7.056H418.78z"
		/>
	<path fill="#FFFFFF" d="M455.824,153.471c0,4.704-2.353,7.056-7.056,7.056h-2.646c-4.702,0-7.056-2.352-7.056-7.056v-10.584
		c0-4.704,2.354-7.056,7.056-7.056h2.646c4.703,0,7.056,2.352,7.056,7.056V153.471z M444.358,148.003l6.174-5.116
		c0-1.176-0.588-1.764-1.764-1.764h-2.646c-1.176,0-1.764,0.588-1.764,1.764V148.003z M450.532,148.355l-6.174,5.116
		c0,1.176,0.588,1.764,1.764,1.764h2.646c1.176,0,1.764-0.588,1.764-1.764V148.355z"/>
	<path fill="#FFFFFF" d="M459.352,135.832h7.409l5.819,14.994l5.821-14.994h7.409v24.695h-5.292v-14.994l-5.646,14.994h-4.587
		l-5.645-14.994v14.994h-5.292v-24.695H459.352z"/>
	<path fill="#FFFFFF" d="M499.924,135.832c4.704,0,7.056,2.352,7.056,7.056c0,3.175-1,4.939-2.999,5.292
		c1.999,0.353,2.999,2.117,2.999,5.292c0,4.704-2.352,7.056-7.056,7.056H489.34v-24.695L499.924,135.832L499.924,135.832z
		 M494.632,141.124v4.41h5.292c1.176,0,1.764-0.588,1.764-1.764v-0.882c0-1.176-0.588-1.764-1.764-1.764H494.632L494.632,141.124z
		 M494.632,150.825v4.41h5.292c1.176,0,1.764-0.588,1.764-1.764v-0.882c0-1.176-0.588-1.764-1.764-1.764H494.632L494.632,150.825z"
		/>
</g>
<g>
	<g>
		<defs>
			<path id="SVGID_31_" d="M223.127,285.935c0,39.815,32.276,72.097,72.094,72.097c39.815,0,72.097-32.279,72.097-72.097
				s-32.28-72.101-72.097-72.101C255.403,213.834,223.127,246.116,223.127,285.935"/>
		</defs>
		<clipPath id="SVGID_32_">
			<use xlink:href="#SVGID_31_"  overflow="visible"/>
		</clipPath>
		
			<radialGradient id="SVGID_33_" cx="-27.5364" cy="-476.7896" r="2.0025" gradientTransform="matrix(164.0126 0 0 164.0126 4808.4746 78369.6641)" gradientUnits="userSpaceOnUse">
			<stop  offset="0" style="stop-color:#F9FAFA"/>
			<stop  offset="0.1196" style="stop-color:#F6F6F6"/>
			<stop  offset="0.227" style="stop-color:#EEEDEC"/>
			<stop  offset="0.3298" style="stop-color:#DEDCDA"/>
			<stop  offset="0.4297" style="stop-color:#C7C5C2"/>
			<stop  offset="0.5268" style="stop-color:#ACA9A4"/>
			<stop  offset="0.5376" style="stop-color:#A8A5A0"/>
			<stop  offset="0.8458" style="stop-color:#44413E"/>
			<stop  offset="1" style="stop-color:#FAFAFA"/>
		</radialGradient>
		<rect x="223.127" y="213.834" clip-path="url(#SVGID_32_)" fill="url(#SVGID_33_)" width="144.189" height="144.195"/>
	</g>
</g>
<g>
	<g>
		<defs>
			<path id="SVGID_34_" d="M232.022,285.935c0,34.905,28.295,63.203,63.198,63.203c34.91,0,63.199-28.298,63.199-63.203
				c0-34.906-28.289-63.201-63.199-63.201C260.317,222.733,232.022,251.028,232.022,285.935"/>
		</defs>
		<clipPath id="SVGID_35_">
			<use xlink:href="#SVGID_34_"  overflow="visible"/>
		</clipPath>
		
			<linearGradient id="SVGID_36_" gradientUnits="userSpaceOnUse" x1="-30.8098" y1="-475.8047" x2="-28.8037" y2="-475.8047" gradientTransform="matrix(0 -131.1147 131.1147 0 62680.1797 -3600.4402)">
			<stop  offset="0" style="stop-color:#F6F6F5"/>
			<stop  offset="1" style="stop-color:#797671"/>
		</linearGradient>
		<rect x="232.022" y="222.733" clip-path="url(#SVGID_35_)" fill="url(#SVGID_36_)" width="126.397" height="126.404"/>
	</g>
</g>
<g>
	<path fill="#013675" d="M357.155,285.937c0,34.209-27.728,61.938-61.936,61.938c-34.206,0-61.935-27.729-61.935-61.938
		c0-34.203,27.729-61.942,61.935-61.942C329.428,223.993,357.155,251.733,357.155,285.937"/>
</g>
<g>
	<path fill="#FFED00" d="M270.96,261.315h6.506c0.868,0,1.303-0.436,1.303-1.303v-0.65c0-0.867-0.435-1.301-1.303-1.301h-6.506
		v-3.904h6.506c3.471,0,5.205,1.736,5.205,5.205c0,2.342-0.736,3.645-2.212,3.904c1.476,0.26,2.212,1.561,2.212,3.902
		c0,3.471-1.734,5.205-5.205,5.205h-6.506v-3.902h6.506c0.868,0,1.303-0.434,1.303-1.303v-0.65c0-0.867-0.435-1.301-1.303-1.301
		h-6.506V261.315z"/>
	<path fill="#FFED00" d="M297.635,267.168c0,3.472-1.734,5.205-5.204,5.205h-1.952c-3.471,0-5.205-1.733-5.205-5.205v-7.807
		c0-3.469,1.734-5.205,5.205-5.205h1.952c3.47,0,5.204,1.736,5.204,5.205V267.168z M289.178,263.135l4.554-3.772
		c0-0.866-0.435-1.301-1.301-1.301h-1.952c-0.867,0-1.301,0.435-1.301,1.301V263.135z M293.731,263.396l-4.554,3.772
		c0,0.869,0.434,1.304,1.301,1.304h1.952c0.866,0,1.301-0.435,1.301-1.304V263.396z"/>
	<path fill="#FFED00" d="M312.598,267.168c0,3.472-1.734,5.205-5.204,5.205h-1.952c-3.47,0-5.205-1.733-5.205-5.205v-7.807
		c0-3.469,1.735-5.205,5.205-5.205h1.952c3.47,0,5.204,1.736,5.204,5.205V267.168z M304.141,263.135l4.554-3.772
		c0-0.866-0.434-1.301-1.301-1.301h-1.952c-0.867,0-1.301,0.435-1.301,1.301V263.135z M308.694,263.396l-4.554,3.772
		c0,0.869,0.434,1.304,1.301,1.304h1.952c0.867,0,1.301-0.435,1.301-1.304V263.396z"/>
</g>
<g>
	<path fill="#FFED00" d="M315.83,263.374h-1.448l2.512-8.692h1.448L315.83,263.374z"/>
	<path fill="#FFED00" d="M322.204,258.304v1.446h-2.896v-1.446H322.204z"/>
</g>
<g>
	<path fill="#FFED00" d="M271.108,252.032v-3.367h0.722v1.564l0.913-1.564h0.771l-1.011,1.685l1.011,1.685h-0.771l-0.913-1.563
		v1.563h-0.722V252.032z"/>
	<path fill="#FFED00" d="M273.873,252.032v-0.723h1.442c0.16,0,0.24-0.08,0.24-0.24v-0.119c0-0.16-0.08-0.24-0.24-0.24h-0.48
		c-0.642,0-0.962-0.319-0.962-0.963v-0.119c0-0.641,0.32-0.963,0.962-0.963h1.442v0.724h-1.442c-0.16,0-0.239,0.079-0.239,0.239
		v0.119c0,0.16,0.079,0.24,0.239,0.24h0.48c0.642,0,0.962,0.322,0.962,0.963v0.119c0,0.643-0.32,0.963-0.962,0.963H273.873z"/>
	<path fill="#FFED00" d="M277.479,248.665v1.322h0.961v-1.322h0.722v3.367h-0.722v-1.322h-0.961v1.322h-0.723v-3.367H277.479z"/>
</g>
<g>
	<path fill="#FFED00" d="M247.709,315.099v-12.765c0-7.563,3.782-11.346,11.346-11.346h4.255c1.891,0,2.836-0.945,2.836-2.836
		v-1.418c0-1.891-0.945-2.836-2.836-2.836h-15.601v-8.51h15.601c7.563,0,11.346,3.781,11.346,11.346v1.418
		c0,7.564-3.782,11.346-11.346,11.346h-4.255c-1.892,0-2.837,0.945-2.837,2.836v4.256h18.438v8.509H247.709z"/>
	<path fill="#FFED00" d="M288.837,303.752c0,1.894,0.945,2.838,2.836,2.838h5.674c1.891,0,2.837-0.944,2.837-2.838v-4.254h-5.673
		v-8.51h14.182v12.764c0,7.564-3.782,11.347-11.346,11.347h-5.674c-7.563,0-11.346-3.781-11.346-11.347v-17.018
		c0-7.564,3.782-11.346,11.346-11.346h17.02v8.51h-17.02c-1.891,0-2.836,0.945-2.836,2.836V303.752z"/>
	<path fill="#FFED00" d="M331.384,275.39c7.563,0,11.346,3.78,11.346,11.346c0,5.104-1.607,7.941-4.822,8.511
		c3.215,0.565,4.822,3.401,4.822,8.508c0,7.563-3.782,11.346-11.346,11.346h-17.02v-39.71H331.384z M322.874,283.899v7.09h8.51
		c1.891,0,2.837-0.945,2.837-2.836v-1.418c0-1.891-0.946-2.836-2.837-2.836H322.874z M322.874,299.499v7.092h8.51
		c1.891,0,2.837-0.944,2.837-2.838v-1.418c0-1.891-0.946-2.836-2.837-2.836H322.874z"/>
</g>
<g>
	<g>
		<defs>
			<path id="SVGID_37_" d="M379.003,285.935c0,40.235,32.611,72.854,72.853,72.854c40.235,0,72.853-32.619,72.853-72.854
				s-32.616-72.856-72.853-72.856C411.614,213.077,379.003,245.698,379.003,285.935"/>
		</defs>
		<clipPath id="SVGID_38_">
			<use xlink:href="#SVGID_37_"  overflow="visible"/>
		</clipPath>
		
			<radialGradient id="SVGID_39_" cx="-27.0774" cy="-476.8008" r="2.0015" gradientTransform="matrix(165.7381 0 0 165.7381 4936.4316 79192.9531)" gradientUnits="userSpaceOnUse">
			<stop  offset="0" style="stop-color:#F9FAFA"/>
			<stop  offset="0.1196" style="stop-color:#F6F6F6"/>
			<stop  offset="0.227" style="stop-color:#EEEDEC"/>
			<stop  offset="0.3298" style="stop-color:#DEDCDA"/>
			<stop  offset="0.4297" style="stop-color:#C7C5C2"/>
			<stop  offset="0.5268" style="stop-color:#ACA9A4"/>
			<stop  offset="0.5376" style="stop-color:#A8A5A0"/>
			<stop  offset="0.8458" style="stop-color:#44413E"/>
			<stop  offset="1" style="stop-color:#FAFAFA"/>
		</radialGradient>
		<rect x="379.003" y="213.077" clip-path="url(#SVGID_38_)" fill="url(#SVGID_39_)" width="145.703" height="145.713"/>
	</g>
</g>
<g>
	<g>
		<defs>
			<path id="SVGID_40_" d="M387.989,285.935c0,35.274,28.591,63.871,63.865,63.871c35.273,0,63.859-28.597,63.859-63.871
				s-28.586-63.865-63.859-63.865C416.58,222.069,387.989,250.659,387.989,285.935"/>
		</defs>
		<clipPath id="SVGID_41_">
			<use xlink:href="#SVGID_40_"  overflow="visible"/>
		</clipPath>
		
			<linearGradient id="SVGID_42_" gradientUnits="userSpaceOnUse" x1="-30.7917" y1="-475.2324" x2="-28.7877" y2="-475.2324" gradientTransform="matrix(0 -132.4936 132.4936 0 63417.0117 -3639.2834)">
			<stop  offset="0" style="stop-color:#F6F6F5"/>
			<stop  offset="1" style="stop-color:#797671"/>
		</linearGradient>
		<rect x="387.989" y="222.069" clip-path="url(#SVGID_41_)" fill="url(#SVGID_42_)" width="127.726" height="127.736"/>
	</g>
</g>
<g>
	<path fill="#892312" d="M514.442,285.935c0,34.569-28.023,62.588-62.588,62.588c-34.566,0-62.588-28.019-62.588-62.588
		c0-34.563,28.021-62.588,62.588-62.588C486.419,223.347,514.442,251.372,514.442,285.935"/>
</g>
<g>
	<path fill="#F6A600" d="M424.357,258.062h-2.603v-3.903h6.506v18.217h-3.903V258.062z"/>
	<path fill="#F6A600" d="M443.225,267.168c0,3.472-1.734,5.205-5.204,5.205h-1.952c-3.47,0-5.205-1.733-5.205-5.205v-7.807
		c0-3.469,1.735-5.205,5.205-5.205h1.952c3.47,0,5.204,1.736,5.204,5.205V267.168z M434.768,263.135l4.554-3.772
		c0-0.866-0.434-1.301-1.301-1.301h-1.952c-0.867,0-1.301,0.435-1.301,1.301V263.135z M439.321,263.396l-4.554,3.772
		c0,0.869,0.434,1.304,1.301,1.304h1.952c0.867,0,1.301-0.435,1.301-1.304V263.396z"/>
	<path fill="#F6A600" d="M458.188,267.168c0,3.472-1.734,5.205-5.204,5.205h-1.952c-3.47,0-5.205-1.733-5.205-5.205v-7.807
		c0-3.469,1.735-5.205,5.205-5.205h1.952c3.47,0,5.204,1.736,5.204,5.205V267.168z M449.731,263.135l4.554-3.772
		c0-0.866-0.434-1.301-1.301-1.301h-1.952c-0.867,0-1.301,0.435-1.301,1.301V263.135z M454.285,263.396l-4.554,3.772
		c0,0.869,0.434,1.304,1.301,1.304h1.952c0.867,0,1.301-0.435,1.301-1.304V263.396z"/>
	<path fill="#F6A600" d="M473.151,267.168c0,3.472-1.734,5.205-5.204,5.205h-1.952c-3.47,0-5.205-1.733-5.205-5.205v-7.807
		c0-3.469,1.735-5.205,5.205-5.205h1.952c3.47,0,5.204,1.736,5.204,5.205V267.168z M464.694,263.135l4.554-3.772
		c0-0.866-0.434-1.301-1.301-1.301h-1.952c-0.866,0-1.301,0.435-1.301,1.301V263.135z M469.248,263.396l-4.554,3.772
		c0,0.869,0.435,1.304,1.301,1.304h1.952c0.867,0,1.301-0.435,1.301-1.304V263.396z"/>
</g>
<g>
	<path fill="#F6A600" d="M476.385,263.374h-1.449l2.512-8.692h1.448L476.385,263.374z"/>
	<path fill="#F6A600" d="M482.759,258.304v1.446h-2.897v-1.446H482.759z"/>
</g>
<g>
	<path fill="#F6A600" d="M421.906,252.032v-3.367h0.723v1.564l0.912-1.564h0.771l-1.01,1.685l1.01,1.685h-0.771l-0.912-1.563v1.563
		h-0.723V252.032z"/>
	<path fill="#F6A600" d="M424.672,252.032v-0.723h1.441c0.16,0,0.24-0.08,0.24-0.24v-0.119c0-0.16-0.08-0.24-0.24-0.24h-0.479
		c-0.643,0-0.962-0.319-0.962-0.963v-0.119c0-0.641,0.319-0.963,0.962-0.963h1.441v0.724h-1.441c-0.16,0-0.24,0.079-0.24,0.239
		v0.119c0,0.16,0.08,0.24,0.24,0.24h0.479c0.643,0,0.962,0.322,0.962,0.963v0.119c0,0.643-0.319,0.963-0.962,0.963H424.672z"/>
	<path fill="#F6A600" d="M428.277,248.665v1.322h0.961v-1.322h0.723v3.367h-0.723v-1.322h-0.961v1.322h-0.722v-3.367H428.277z"/>
</g>
<g>
	<path fill="#F6A600" d="M403.633,286.735c0-7.564,3.781-11.346,11.346-11.346h5.673c7.563,0,11.346,3.781,11.346,11.346
		c0,5.105-1.606,7.941-4.821,8.51c3.215,0.566,4.821,3.402,4.821,8.508c0,7.564-3.781,11.347-11.346,11.347h-5.673
		c-7.563,0-11.346-3.781-11.346-11.347c0-5.104,1.606-7.94,4.821-8.508C405.239,294.676,403.633,291.84,403.633,286.735z
		 M420.65,290.989c1.891,0,2.837-0.945,2.837-2.836v-1.418c0-1.891-0.946-2.836-2.837-2.836h-5.673
		c-1.891,0-2.836,0.945-2.836,2.836v1.418c0,1.891,0.945,2.836,2.836,2.836H420.65z M414.978,299.499
		c-1.891,0-2.836,0.945-2.836,2.836v1.418c0,1.894,0.945,2.838,2.836,2.838h5.673c1.891,0,2.837-0.944,2.837-2.838v-1.418
		c0-1.891-0.946-2.836-2.837-2.836H414.978z"/>
	<path fill="#F6A600" d="M446.179,303.752c0,1.894,0.944,2.838,2.836,2.838h5.673c1.891,0,2.837-0.944,2.837-2.838v-4.254h-5.673
		v-8.51h14.182v12.764c0,7.564-3.781,11.347-11.346,11.347h-5.673c-7.563,0-11.346-3.781-11.346-11.347v-17.018
		c0-7.564,3.781-11.346,11.346-11.346h17.019v8.51h-17.019c-1.892,0-2.836,0.945-2.836,2.836V303.752z"/>
	<path fill="#F6A600" d="M488.724,275.39c7.563,0,11.346,3.78,11.346,11.346c0,5.104-1.606,7.941-4.822,8.511
		c3.216,0.565,4.822,3.401,4.822,8.508c0,7.563-3.782,11.346-11.346,11.346h-17.02v-39.71H488.724z M480.216,283.899v7.09h8.509
		c1.891,0,2.837-0.945,2.837-2.836v-1.418c0-1.891-0.946-2.836-2.837-2.836H480.216z M480.216,299.499v7.092h8.509
		c1.891,0,2.837-0.944,2.837-2.838v-1.418c0-1.891-0.946-2.836-2.837-2.836H480.216z"/>
</g>
<g>
	<rect x="186.716" y="100.485" fill="#FFFFFF" width="5.637" height="225.188"/>
	<path fill="none" stroke="#FFFFFF" stroke-width="1.8123" stroke-dasharray="10.8837,10.8837" d="M537.66,355.208
		c0,5.674-4.595,10.271-10.265,10.271H11.176c-5.673,0-10.27-4.597-10.27-10.271V11.176c0-5.671,4.597-10.27,10.27-10.27h516.22
		c5.67,0,10.265,4.599,10.265,10.27V355.208L537.66,355.208z"/>
	<line fill="none" stroke="#F6A600" stroke-width="2.0047" x1="14.349" y1="31.891" x2="524.22" y2="31.891"/>
	<polygon fill="#E2001A" points="531.023,70.274 543.12,86.97 563.711,86.013 558.198,105.879 571.783,121.385 552.817,129.458 
		549.167,149.746 531.023,139.952 512.888,149.746 509.234,129.458 490.269,121.385 503.852,105.879 498.339,86.013 518.934,86.97 	
		"/>
</g>
<g>
	<path fill="#FFFFFF" d="M517.937,110.923h-2.332l-0.723-2.331h-3.994l-0.724,2.331h-2.33l3.264-10.879h3.575L517.937,110.923z
		 M511.595,106.261h2.58l-1.29-3.885L511.595,106.261z"/>
	<path fill="#FFFFFF" d="M523.376,100.044c2.072,0,3.108,1.036,3.108,3.108v4.663c0,2.072-1.036,3.108-3.108,3.108h-4.661v-10.879
		H523.376z M524.153,103.152c0-0.518-0.259-0.777-0.776-0.777h-2.331v6.217h2.331c0.519,0,0.776-0.259,0.776-0.777V103.152z"/>
	<path fill="#FFFFFF" d="M532.701,100.044c2.072,0,3.108,1.036,3.108,3.108v4.663c0,2.072-1.036,3.108-3.108,3.108h-4.662v-10.879
		H532.701z M533.479,103.152c0-0.518-0.259-0.777-0.777-0.777h-2.331v6.217h2.331c0.52,0,0.777-0.259,0.777-0.777V103.152z"/>
	<path fill="#FFFFFF" d="M544.356,104.318v2.332h-4.662v1.943h4.662v2.331h-6.993v-10.879h6.993v2.332h-4.662v1.942L544.356,104.318
		L544.356,104.318z"/>
	<path fill="#FFFFFF" d="M550.574,100.044c2.072,0,3.108,1.036,3.108,3.108v4.663c0,2.072-1.036,3.108-3.108,3.108h-4.662v-10.879
		H550.574z M551.352,103.152c0-0.518-0.259-0.777-0.777-0.777h-2.331v6.217h2.331c0.52,0,0.777-0.259,0.777-0.777V103.152z"/>
</g>
<g>
	<path fill="#FFFFFF" d="M514.828,115.562h2.331l-2.875,10.879h-3.574l-2.875-10.879h2.33l2.331,8.548L514.828,115.562z"/>
	<path fill="#FFFFFF" d="M527.262,126.441h-2.332l-0.723-2.331h-3.994l-0.724,2.331h-2.331l3.265-10.879h3.574L527.262,126.441z
		 M520.921,121.779h2.58l-1.29-3.885L520.921,121.779z"/>
	<path fill="#FFFFFF" d="M530.37,124.11h4.662v2.331h-6.993v-10.879h2.331V124.11z"/>
	<path fill="#FFFFFF" d="M538.919,115.562v7.771c0,0.518,0.259,0.777,0.776,0.777h1.554c0.52,0,0.777-0.259,0.777-0.777v-7.771
		h2.331v7.771c0,2.072-1.036,3.108-3.108,3.108h-1.554c-2.072,0-3.107-1.036-3.107-3.108v-7.771H538.919z"/>
	<path fill="#FFFFFF" d="M552.905,119.836v2.332h-4.662v1.943h4.662v2.331h-6.993v-10.879h6.993v2.332h-4.662v1.942L552.905,119.836
		L552.905,119.836z"/>
</g>
<g>
	<path fill="#FFFFFF" d="M316.813,41.496h2.411l-2.975,11.258h-3.699l-2.975-11.258h2.413l2.412,8.845L316.813,41.496z"/>
	<path fill="#FFFFFF" d="M329.678,52.754h-2.412l-0.748-2.413h-4.133l-0.748,2.413h-2.413l3.377-11.258h3.699L329.678,52.754z
		 M323.117,47.929h2.669l-1.334-4.021L323.117,47.929z"/>
	<path fill="#FFFFFF" d="M332.896,50.341h4.824v2.413h-7.236V41.496h2.412V50.341z"/>
	<path fill="#FFFFFF" d="M341.741,41.496v11.258h-2.412V41.496H341.741z"/>
	<path fill="#FFFFFF" d="M348.175,41.496c2.146,0,3.217,1.072,3.217,3.216v4.825c0,2.144-1.071,3.216-3.217,3.216h-4.825V41.496
		H348.175z M348.979,44.712c0-0.536-0.269-0.804-0.805-0.804h-2.413v6.433h2.413c0.536,0,0.805-0.268,0.805-0.804V44.712z"/>
	<path fill="#FFFFFF" d="M355.411,41.496v11.258h-2.412V41.496H355.411z"/>
	<path fill="#FFFFFF" d="M365.061,41.496v2.412h-2.814v8.846h-2.413v-8.846h-2.813v-2.412H365.061z"/>
	<path fill="#FFFFFF" d="M368.358,41.496l2.332,4.021l2.332-4.021h2.492l-3.617,6.433v4.825h-2.413v-4.825l-3.619-6.433H368.358z"/>
	<path fill="#FFFFFF" d="M385.164,48.331h-2.413c-2.144,0-3.216-1.072-3.216-3.216v-0.402c0-2.144,1.072-3.216,3.216-3.216h1.608
		c2.145,0,3.217,1.072,3.217,3.216v4.021c0,2.68-1.34,4.021-4.021,4.021h-3.216v-2.413h3.216c1.072,0,1.608-0.536,1.608-1.608
		L385.164,48.331L385.164,48.331z M385.164,45.919v-1.207c0-0.536-0.268-0.804-0.804-0.804h-1.608c-0.536,0-0.804,0.269-0.804,0.804
		v0.402c0,0.536,0.268,0.804,0.804,0.804L385.164,45.919L385.164,45.919z"/>
	<path fill="#FFFFFF" d="M396.824,49.538c0,2.144-1.072,3.216-3.216,3.216h-1.207c-2.145,0-3.217-1.072-3.217-3.216v-4.825
		c0-2.144,1.072-3.216,3.217-3.216h1.207c2.144,0,3.216,1.072,3.216,3.216V49.538z M391.596,47.044l2.815-2.332
		c0-0.536-0.27-0.804-0.804-0.804h-1.207c-0.536,0-0.805,0.269-0.805,0.804V47.044z M394.412,47.206l-2.815,2.332
		c0,0.536,0.269,0.804,0.805,0.804h1.207c0.535,0,0.804-0.268,0.804-0.804V47.206z"/>
	<path fill="#FFFFFF" d="M406.473,41.496c2.146,0,3.218,1.072,3.218,3.216v4.825c0,2.144-1.072,3.216-3.218,3.216h-4.824V41.496
		H406.473z M407.278,44.712c0-0.536-0.269-0.804-0.805-0.804h-2.413v6.433h2.413c0.536,0,0.805-0.268,0.805-0.804V44.712z"/>
	<path fill="#FFFFFF" d="M420.948,52.754h-2.412l-0.748-2.413h-4.133l-0.748,2.413h-2.413l3.377-11.258h3.699L420.948,52.754z
		 M414.386,47.929h2.669l-1.334-4.021L414.386,47.929z"/>
	<path fill="#FFFFFF" d="M423.441,41.496l2.332,4.021l2.332-4.021h2.492l-3.617,6.433v4.825h-2.413v-4.825l-3.619-6.433H423.441z"/>
	<path fill="#FFFFFF" d="M431.402,52.754v-2.413h4.824c0.536,0,0.805-0.268,0.805-0.804v-0.402c0-0.536-0.269-0.804-0.805-0.804
		h-1.607c-2.145,0-3.216-1.072-3.216-3.216v-0.402c0-2.144,1.071-3.216,3.216-3.216h4.825v2.412h-4.825
		c-0.536,0-0.804,0.269-0.804,0.804v0.402c0,0.536,0.268,0.804,0.804,0.804h1.607c2.146,0,3.218,1.072,3.218,3.216v0.402
		c0,2.144-1.072,3.216-3.218,3.216L431.402,52.754L431.402,52.754z"/>
</g>
<g>
	<path fill="#FFFFFF" d="M33.463,41.497h2.412l-2.976,11.258H29.2l-2.975-11.258h2.411l2.412,8.845L33.463,41.497z"/>
	<path fill="#FFFFFF" d="M46.328,52.754h-2.412l-0.748-2.413h-4.133l-0.748,2.413h-2.412l3.377-11.258h3.699L46.328,52.754z
		 M39.767,47.93h2.67l-1.335-4.021L39.767,47.93z"/>
	<path fill="#FFFFFF" d="M49.545,50.342h4.825v2.413h-7.237V41.497h2.412V50.342z"/>
	<path fill="#FFFFFF" d="M58.391,41.497v11.258h-2.412V41.497H58.391z"/>
	<path fill="#FFFFFF" d="M64.825,41.497c2.145,0,3.217,1.072,3.217,3.216v4.825c0,2.144-1.071,3.216-3.217,3.216H60V41.497H64.825z
		 M65.628,44.713c0-0.536-0.268-0.804-0.804-0.804h-2.413v6.433h2.413c0.536,0,0.804-0.268,0.804-0.804V44.713z"/>
	<path fill="#FFFFFF" d="M72.061,41.497v11.258h-2.412V41.497H72.061z"/>
	<path fill="#FFFFFF" d="M81.711,41.497v2.412h-2.813v8.846h-2.413v-8.846H73.67v-2.412H81.711z"/>
	<path fill="#FFFFFF" d="M85.008,41.497l2.332,4.021l2.332-4.021h2.492l-3.618,6.433v4.825h-2.412V47.93l-3.618-6.433H85.008z"/>
	<path fill="#FFFFFF" d="M104.227,41.497v2.412l-3.699,8.846h-2.734l3.699-8.846h-5.308v-2.412H104.227z"/>
	<path fill="#FFFFFF" d="M113.876,41.497c2.146,0,3.217,1.072,3.217,3.216v4.825c0,2.144-1.071,3.216-3.217,3.216h-4.825V41.497
		H113.876z M114.679,44.713c0-0.536-0.268-0.804-0.804-0.804h-2.412v6.433h2.412c0.536,0,0.804-0.268,0.804-0.804V44.713z"/>
	<path fill="#FFFFFF" d="M128.351,52.754h-2.413l-0.747-2.413h-4.134l-0.748,2.413h-2.412l3.377-11.258h3.699L128.351,52.754z
		 M121.788,47.93h2.67l-1.335-4.021L121.788,47.93z"/>
	<path fill="#FFFFFF" d="M130.844,41.497l2.332,4.021l2.332-4.021H138l-3.618,6.433v4.825h-2.413V47.93l-3.617-6.433H130.844z"/>
	<path fill="#FFFFFF" d="M138.803,52.754v-2.413h4.825c0.536,0,0.805-0.268,0.805-0.804v-0.402c0-0.536-0.269-0.804-0.805-0.804
		h-1.607c-2.146,0-3.218-1.072-3.218-3.216v-0.402c0-2.144,1.072-3.216,3.218-3.216h4.824v2.412h-4.824
		c-0.536,0-0.805,0.269-0.805,0.804v0.402c0,0.536,0.269,0.804,0.805,0.804h1.607c2.146,0,3.217,1.072,3.217,3.216v0.402
		c0,2.144-1.071,3.216-3.217,3.216L138.803,52.754L138.803,52.754z"/>
</g>
</svg>
